<svg width="20" height="20" viewBox="0 0 20 20" fill="none" xmlns="http://www.w3.org/2000/svg">
<path d="M2.5 17.4974V9.9974C2.5 9.53716 2.8731 9.16406 3.33333 9.16406H5.83333" stroke="#1E1F21" stroke-width="1.4" stroke-linecap="round" stroke-linejoin="round"/>
<path d="M9.16699 6.66554V3.75001C9.16699 3.34004 9.36803 2.95612 9.705 2.7226C10.042 2.48908 10.472 2.43564 10.8559 2.57959L16.9596 4.86849C17.2848 4.99045 17.5003 5.30139 17.5003 5.64876V17.4989" stroke="#1E1F21" stroke-width="1.4" stroke-linecap="round" stroke-linejoin="round"/>
<path d="M5.83398 17.4974V7.4974C5.83398 7.03716 6.20708 6.66406 6.66732 6.66406H12.5007C12.9609 6.66406 13.334 7.03716 13.334 7.4974V17.4974" stroke="#1E1F21" stroke-width="1.4" stroke-linecap="round" stroke-linejoin="round"/>
<path d="M18.3337 17.4948H1.66699" stroke="#1E1F21" stroke-width="1.4" stroke-linecap="round" stroke-linejoin="round"/>
<path d="M8.33398 14.5807H10.834" stroke="#1E1F21" stroke-width="1.4" stroke-linecap="round" stroke-linejoin="round"/>
<path d="M8.33398 12.0807H10.834" stroke="#1E1F21" stroke-width="1.4" stroke-linecap="round" stroke-linejoin="round"/>
<path d="M8.33398 9.58073H10.834" stroke="#1E1F21" stroke-width="1.4" stroke-linecap="round" stroke-linejoin="round"/>
</svg>
