<svg width="20" height="20" viewBox="0 0 20 20" fill="none" xmlns="http://www.w3.org/2000/svg">
<path fill-rule="evenodd" clip-rule="evenodd" d="M10.6675 2.49219C11.0192 2.49219 11.3331 2.71305 11.452 3.04408L11.8755 4.22374C11.9427 4.40925 12.0732 4.56511 12.244 4.66393L13.5003 5.38923C13.6709 5.48766 13.8709 5.52251 14.0647 5.4876L15.2986 5.26501C15.6451 5.20201 15.9938 5.36351 16.1698 5.66851L16.8367 6.81899C17.0132 7.12316 16.9799 7.50538 16.7534 7.77439L15.9439 8.73145C15.8164 8.88195 15.7464 9.07277 15.7463 9.27001V10.7206C15.7464 10.9179 15.8164 11.1087 15.9439 11.2592L16.7534 12.2162C16.9799 12.4852 17.0132 12.8675 16.8367 13.1716L16.1698 14.3221C15.9939 14.6268 15.6456 14.7882 15.2994 14.7256L14.0656 14.503C13.8717 14.4681 13.6718 14.503 13.5012 14.6014L12.2448 15.3267C12.074 15.4255 11.9436 15.5814 11.8763 15.7669L11.4528 16.9465C11.3338 17.2779 11.0195 17.4987 10.6675 17.4984H9.3336C8.98186 17.4984 8.668 17.2776 8.54911 16.9465L8.1256 15.7669C8.0584 15.5816 7.92828 15.4258 7.75795 15.3267L6.50076 14.6014C6.33015 14.503 6.1302 14.4681 5.93636 14.503L4.70251 14.7256C4.35604 14.7886 4.00734 14.6271 3.83131 14.3221L3.16437 13.1716C2.98787 12.8675 3.02122 12.4852 3.24774 12.2162L4.05724 11.2592C4.18474 11.1087 4.25474 10.9179 4.25482 10.7206V9.27001C4.25474 9.07277 4.18474 8.88195 4.05724 8.73145L3.25607 7.77439C3.02956 7.50538 2.9962 7.12316 3.17271 6.81899L3.83965 5.66851C4.01557 5.36384 4.36381 5.20239 4.71001 5.26501L5.94386 5.4876C6.13771 5.52251 6.33766 5.48766 6.50826 5.38923L7.76545 4.66393C7.93578 4.5648 8.0659 4.40901 8.1331 4.22374L8.55661 3.04408C8.67456 2.71562 8.98462 2.49538 9.3336 2.49219H10.6675Z" stroke="#1E1F21" stroke-width="1.4" stroke-linecap="round" stroke-linejoin="round"/>
<circle cx="10.0006" cy="9.99575" r="2.29262" stroke="#1E1F21" stroke-width="1.4" stroke-linecap="round" stroke-linejoin="round"/>
</svg>
