<svg width="20" height="20" viewBox="0 0 20 20" fill="none" xmlns="http://www.w3.org/2000/svg">
<path fill-rule="evenodd" clip-rule="evenodd" d="M8.33333 10H4.16667C3.24583 10 2.5 9.25417 2.5 8.33333V4.16667C2.5 3.24583 3.24583 2.5 4.16667 2.5H8.33333C9.25417 2.5 10 3.24583 10 4.16667V8.33333C10 9.25417 9.25417 10 8.33333 10Z" stroke="#1E1F21" stroke-width="1.4" stroke-linecap="round" stroke-linejoin="round"/>
<path fill-rule="evenodd" clip-rule="evenodd" d="M15.417 16.6641H12.917C12.227 16.6641 11.667 16.1041 11.667 15.4141V12.9141C11.667 12.2241 12.227 11.6641 12.917 11.6641H15.417C16.107 11.6641 16.667 12.2241 16.667 12.9141V15.4141C16.667 16.1041 16.107 16.6641 15.417 16.6641Z" stroke="#1E1F21" stroke-width="1.4" stroke-linecap="round" stroke-linejoin="round"/>
<path fill-rule="evenodd" clip-rule="evenodd" d="M16.25 9.16406H13.75C13.06 9.16406 12.5 8.60406 12.5 7.91406V5.41406C12.5 4.72406 13.06 4.16406 13.75 4.16406H16.25C16.94 4.16406 17.5 4.72406 17.5 5.41406V7.91406C17.5 8.60406 16.94 9.16406 16.25 9.16406Z" stroke="#1E1F21" stroke-width="1.4" stroke-linecap="round" stroke-linejoin="round"/>
<path fill-rule="evenodd" clip-rule="evenodd" d="M7.91699 17.5H5.41699C4.72699 17.5 4.16699 16.94 4.16699 16.25V13.75C4.16699 13.06 4.72699 12.5 5.41699 12.5H7.91699C8.60699 12.5 9.16699 13.06 9.16699 13.75V16.25C9.16699 16.94 8.60699 17.5 7.91699 17.5Z" stroke="#1E1F21" stroke-width="1.4" stroke-linecap="round" stroke-linejoin="round"/>
</svg>
