<svg width="78" height="20" viewBox="0 0 78 20" fill="none" xmlns="http://www.w3.org/2000/svg">
<circle cx="7.72684" cy="5.7161" r="3.44266" fill="#831C55"/>
<circle cx="3.44266" cy="14.2864" r="3.44266" fill="#831C55"/>
<circle cx="12.012" cy="14.2864" r="3.44266" fill="#831C55"/>
<path d="M23.5754 18L19.1754 3.6H21.9754L25.5754 15.44L29.2354 3.6H32.0354L27.6354 18H23.5754ZM35.2434 18.3C34.47 18.3 33.8134 18.1533 33.2734 17.86C32.74 17.56 32.3334 17.1633 32.0534 16.67C31.78 16.17 31.6434 15.62 31.6434 15.02C31.6434 14.52 31.72 14.0633 31.8734 13.65C32.0267 13.2367 32.2734 12.8733 32.6134 12.56C32.96 12.24 33.4234 11.9733 34.0034 11.76C34.4034 11.6133 34.88 11.4833 35.4334 11.37C35.9867 11.2567 36.6134 11.15 37.3134 11.05C38.0134 10.9433 38.7834 10.8267 39.6234 10.7L38.6434 11.24C38.6434 10.6 38.49 10.13 38.1834 9.83C37.8767 9.53 37.3634 9.38 36.6434 9.38C36.2434 9.38 35.8267 9.47667 35.3934 9.67C34.96 9.86333 34.6567 10.2067 34.4834 10.7L32.0234 9.92C32.2967 9.02667 32.81 8.3 33.5634 7.74C34.3167 7.18 35.3434 6.9 36.6434 6.9C37.5967 6.9 38.4434 7.04667 39.1834 7.34C39.9234 7.63333 40.4834 8.14 40.8634 8.86C41.0767 9.26 41.2034 9.66 41.2434 10.06C41.2834 10.46 41.3034 10.9067 41.3034 11.4V18H38.9234V15.78L39.2634 16.24C38.7367 16.9667 38.1667 17.4933 37.5534 17.82C36.9467 18.14 36.1767 18.3 35.2434 18.3ZM35.8234 16.16C36.3234 16.16 36.7434 16.0733 37.0834 15.9C37.43 15.72 37.7034 15.5167 37.9034 15.29C38.11 15.0633 38.25 14.8733 38.3234 14.72C38.4634 14.4267 38.5434 14.0867 38.5634 13.7C38.59 13.3067 38.6034 12.98 38.6034 12.72L39.4034 12.92C38.5967 13.0533 37.9434 13.1667 37.4434 13.26C36.9434 13.3467 36.54 13.4267 36.2334 13.5C35.9267 13.5733 35.6567 13.6533 35.4234 13.74C35.1567 13.8467 34.94 13.9633 34.7734 14.09C34.6134 14.21 34.4934 14.3433 34.4134 14.49C34.34 14.6367 34.3034 14.8 34.3034 14.98C34.3034 15.2267 34.3634 15.44 34.4834 15.62C34.61 15.7933 34.7867 15.9267 35.0134 16.02C35.24 16.1133 35.51 16.16 35.8234 16.16ZM47.8835 18.3C46.8902 18.3 46.0202 18.05 45.2735 17.55C44.5268 17.05 43.9435 16.37 43.5235 15.51C43.1102 14.65 42.9035 13.68 42.9035 12.6C42.9035 11.5 43.1135 10.5233 43.5335 9.67C43.9602 8.81 44.5568 8.13333 45.3235 7.64C46.0902 7.14667 46.9902 6.9 48.0235 6.9C49.0502 6.9 49.9135 7.15 50.6135 7.65C51.3135 8.15 51.8435 8.83 52.2035 9.69C52.5635 10.55 52.7435 11.52 52.7435 12.6C52.7435 13.68 52.5602 14.65 52.1935 15.51C51.8335 16.37 51.2935 17.05 50.5735 17.55C49.8535 18.05 48.9568 18.3 47.8835 18.3ZM48.3235 15.88C48.9302 15.88 49.4135 15.7433 49.7735 15.47C50.1402 15.1967 50.4035 14.8133 50.5635 14.32C50.7235 13.8267 50.8035 13.2533 50.8035 12.6C50.8035 11.9467 50.7235 11.3733 50.5635 10.88C50.4035 10.3867 50.1468 10.0033 49.7935 9.73C49.4468 9.45667 48.9902 9.32 48.4235 9.32C47.8168 9.32 47.3168 9.47 46.9235 9.77C46.5368 10.0633 46.2502 10.46 46.0635 10.96C45.8768 11.4533 45.7835 12 45.7835 12.6C45.7835 13.2067 45.8735 13.76 46.0535 14.26C46.2335 14.7533 46.5102 15.1467 46.8835 15.44C47.2568 15.7333 47.7368 15.88 48.3235 15.88ZM50.8035 18V10.6H50.4635V3.6H53.2035V18H50.8035ZM62.9635 18V12.9C62.9635 12.6533 62.9502 12.34 62.9235 11.96C62.8968 11.5733 62.8135 11.1867 62.6735 10.8C62.5335 10.4133 62.3035 10.09 61.9835 9.83C61.6702 9.57 61.2235 9.44 60.6435 9.44C60.4102 9.44 60.1602 9.47667 59.8935 9.55C59.6268 9.62333 59.3768 9.76667 59.1435 9.98C58.9102 10.1867 58.7168 10.4933 58.5635 10.9C58.4168 11.3067 58.3435 11.8467 58.3435 12.52L56.7835 11.78C56.7835 10.9267 56.9568 10.1267 57.3035 9.38C57.6502 8.63333 58.1702 8.03 58.8635 7.57C59.5635 7.11 60.4435 6.88 61.5035 6.88C62.3502 6.88 63.0402 7.02333 63.5735 7.31C64.1068 7.59667 64.5202 7.96 64.8135 8.4C65.1135 8.84 65.3268 9.3 65.4535 9.78C65.5802 10.2533 65.6568 10.6867 65.6835 11.08C65.7102 11.4733 65.7235 11.76 65.7235 11.94V18H62.9635ZM55.5835 18V7.2H58.0035V10.78H58.3435V18H55.5835ZM71.9384 18.32C71.0917 18.32 70.4017 18.1767 69.8684 17.89C69.335 17.6033 68.9184 17.24 68.6184 16.8C68.325 16.36 68.115 15.9033 67.9884 15.43C67.8617 14.95 67.785 14.5133 67.7584 14.12C67.7317 13.7267 67.7184 13.44 67.7184 13.26V7.2H70.4784V12.3C70.4784 12.5467 70.4917 12.8633 70.5184 13.25C70.545 13.63 70.6284 14.0133 70.7684 14.4C70.9084 14.7867 71.135 15.11 71.4484 15.37C71.7684 15.63 72.2184 15.76 72.7984 15.76C73.0317 15.76 73.2817 15.7233 73.5484 15.65C73.815 15.5767 74.065 15.4367 74.2984 15.23C74.5317 15.0167 74.7217 14.7067 74.8684 14.3C75.0217 13.8867 75.0984 13.3467 75.0984 12.68L76.6584 13.42C76.6584 14.2733 76.485 15.0733 76.1384 15.82C75.7917 16.5667 75.2684 17.17 74.5684 17.63C73.875 18.09 72.9984 18.32 71.9384 18.32ZM75.4384 18V14.42H75.0984V7.2H77.8384V18H75.4384Z" fill="#1E1F21"/>
</svg>
