<svg width="543" height="828" viewBox="0 0 543 828" fill="none" xmlns="http://www.w3.org/2000/svg">
<g opacity="0.21" clip-path="url(#clip0_2132_151342)">
<path d="M2546.72 2021.24C2546.72 2585.46 2426.39 3096.22 2231.89 3465.9C2037.37 3835.61 1768.8 4063.99 1472.38 4063.99C1175.96 4063.99 907.392 3835.61 712.873 3465.9C518.376 3096.22 398.05 2585.46 398.05 2021.24C398.05 1457.02 518.376 946.264 712.873 576.591C907.392 206.876 1175.96 -21.5005 1472.38 -21.5005C1768.8 -21.5005 2037.37 206.876 2231.89 576.591C2426.39 946.264 2546.72 1457.02 2546.72 2021.24Z" stroke="#831C55" stroke-opacity="0.23" stroke-width="1.78017"/>
<path d="M2232.85 1263.49C2631.81 1662.46 2907.89 2108.7 3031.76 2507.63C3155.64 2906.61 3127.22 3258 2917.62 3467.6C2708.02 3677.2 2356.62 3705.62 1957.65 3581.74C1558.72 3457.87 1112.47 3181.79 713.51 2782.83C314.547 2383.87 38.4674 1937.62 -85.4009 1538.69C-209.283 1139.72 -180.861 788.323 28.739 578.723C238.339 369.123 589.734 340.701 988.708 464.583C1387.64 588.451 1833.88 864.531 2232.85 1263.49Z" stroke="#831C55" stroke-opacity="0.23" stroke-width="1.78017"/>
<path d="M2233.34 2779.5C1834.37 3178.46 1388.13 3454.54 989.2 3578.41C590.227 3702.29 238.832 3673.87 29.2318 3464.27C-180.368 3254.67 -208.79 2903.28 -84.9082 2504.3C38.9602 2105.38 315.039 1659.13 714.003 1260.17C1112.97 861.203 1559.21 585.124 1958.14 461.255C2357.11 337.373 2708.51 365.795 2918.11 575.395C3127.71 784.995 3156.13 1136.39 3032.25 1535.36C2908.38 1934.29 2632.3 2380.54 2233.34 2779.5Z" stroke="#831C55" stroke-opacity="0.23" stroke-width="1.78017"/>
<path d="M1885.28 1031.66C2406.56 1247.58 2832.39 1554.2 3099.49 1875.36C3366.63 2196.56 3474.84 2532.08 3361.41 2805.94C3247.97 3079.79 2934.2 3240.52 2518.19 3278.75C2102.23 3316.98 1584.3 3232.68 1063.03 3016.77C541.756 2800.85 115.921 2494.22 -151.182 2173.06C-418.315 1851.87 -526.529 1516.34 -413.095 1242.49C-299.66 968.632 14.1103 807.901 430.121 769.672C846.086 731.448 1364.01 815.741 1885.28 1031.66Z" stroke="#831C55" stroke-opacity="0.23" stroke-width="1.78017"/>
<path d="M2465.89 2432.09C2249.97 2953.36 1943.35 3379.2 1622.19 3646.3C1300.99 3913.43 965.469 4021.65 691.614 3908.21C417.758 3794.78 257.026 3481.01 218.798 3065C180.574 2649.03 264.867 2131.11 480.785 1609.83C696.702 1088.56 1003.33 662.729 1324.49 395.626C1645.68 128.494 1981.21 20.2792 2255.06 133.714C2528.92 247.149 2689.65 560.919 2727.88 976.93C2766.1 1392.89 2681.81 1910.82 2465.89 2432.09Z" stroke="#831C55" stroke-opacity="0.23" stroke-width="1.78017"/>
<path d="M1064.04 1030.91C1585.31 814.994 2103.23 730.701 2519.2 768.925C2935.21 807.153 3248.98 967.885 3362.42 1241.74C3475.85 1515.6 3367.64 1851.12 3100.5 2172.32C2833.4 2493.48 2407.57 2800.1 1886.29 3016.02C1365.02 3231.94 847.095 3316.23 431.131 3278.01C15.1199 3239.78 -298.65 3079.05 -412.085 2805.19C-525.52 2531.33 -417.305 2195.81 -150.172 1874.61C116.93 1553.45 542.765 1246.83 1064.04 1030.91Z" stroke="#831C55" stroke-opacity="0.23" stroke-width="1.78017"/>
<path d="M2464.84 1610.61C2680.76 2131.88 2765.05 2649.8 2726.83 3065.77C2688.6 3481.78 2527.87 3795.55 2254.01 3908.99C1980.16 4022.42 1644.63 3914.21 1323.44 3647.07C1002.28 3379.97 695.653 2954.14 479.735 2432.86C263.818 1911.59 179.525 1393.67 217.749 977.701C255.977 561.69 416.708 247.92 690.564 134.485C964.42 21.0506 1299.94 129.265 1621.14 396.398C1942.3 663.501 2248.92 1089.34 2464.84 1610.61Z" stroke="#831C55" stroke-opacity="0.23" stroke-width="1.78017"/>
<path d="M2545.71 1974.49C2570.32 2538.17 2472.39 3053.7 2294.21 3431.5C2116 3809.35 1857.64 4049.22 1561.51 4062.15C1265.37 4075.08 987.093 3858.64 776.632 3497.76C566.195 3136.92 423.705 2631.9 399.094 2068.21C374.483 1504.53 472.415 989.008 650.602 611.202C828.809 233.355 1087.16 -6.51917 1383.3 -19.4488C1679.44 -32.3784 1957.72 184.066 2168.18 544.944C2378.61 905.782 2521.1 1410.81 2545.71 1974.49Z" stroke="#831C55" stroke-opacity="0.23" stroke-width="1.78017"/>
<path d="M2199.06 1231.14C2615.05 1612.32 2910.33 2046.1 3051.48 2439.24C3192.65 2832.43 3179.58 3184.73 2979.32 3403.28C2779.06 3621.82 2429.24 3665.54 2025.25 3559.18C1621.29 3452.83 1163.43 3196.48 747.444 2815.3C331.458 2434.12 36.1766 2000.34 -104.975 1607.19C-246.142 1214 -233.075 861.704 -32.8167 643.161C167.441 424.618 517.262 380.895 921.259 487.256C1325.21 593.606 1783.07 849.957 2199.06 1231.14Z" stroke="#831C55" stroke-opacity="0.23" stroke-width="1.78017"/>
<path d="M2265.69 2745.69C1884.51 3161.68 1450.73 3456.96 1057.59 3598.11C664.398 3739.28 312.098 3726.21 93.5543 3525.95C-124.989 3325.7 -168.712 2975.88 -62.3503 2571.88C43.9991 2167.93 300.351 1710.06 681.532 1294.08C1062.71 878.091 1496.49 582.809 1889.64 441.658C2282.83 300.491 2635.13 313.558 2853.67 513.816C3072.21 714.074 3115.94 1063.89 3009.58 1467.89C2903.23 1871.84 2646.87 2329.71 2265.69 2745.69Z" stroke="#831C55" stroke-opacity="0.23" stroke-width="1.78017"/>
<path d="M1841.71 1014.69C2371.91 1207.67 2810.71 1495.43 3091.57 1804.63C3372.46 2113.87 3495.2 2444.35 3393.82 2722.89C3292.44 3001.44 2985.98 3175.7 2572.03 3232.04C2158.13 3288.37 1637.02 3226.75 1106.83 3033.78C576.633 2840.8 137.829 2553.04 -143.029 2243.84C-423.917 1934.6 -546.664 1604.12 -445.283 1325.57C-343.902 1047.03 -37.4411 872.766 376.506 816.428C790.408 760.096 1311.52 821.717 1841.71 1014.69Z" stroke="#831C55" stroke-opacity="0.23" stroke-width="1.78017"/>
<path d="M2482.85 2388.47C2289.88 2918.66 2002.12 3357.47 1692.92 3638.32C1383.68 3919.21 1053.2 4041.96 774.653 3940.58C496.11 3839.2 321.845 3532.74 265.507 3118.79C209.175 2704.89 270.796 2183.78 463.771 1653.58C656.745 1123.39 944.505 684.586 1253.71 403.729C1562.95 122.84 1893.43 0.0933202 2171.97 101.475C2450.52 202.856 2624.78 509.317 2681.12 923.264C2737.45 1337.17 2675.83 1858.28 2482.85 2388.47Z" stroke="#831C55" stroke-opacity="0.23" stroke-width="1.78017"/>
<path d="M1021.23 1049.76C1532.58 811.309 2046.34 704.504 2463.58 724.547C2880.86 744.593 3201.34 891.485 3326.61 1160.13C3451.89 1428.78 3358.41 1768.7 3105.54 2101.25C2852.7 2433.75 2440.65 2758.66 1929.29 2997.11C1417.93 3235.56 904.175 3342.36 486.939 3322.32C69.6567 3302.27 -250.826 3155.38 -376.098 2886.74C-501.37 2618.09 -407.894 2278.16 -155.026 1945.62C97.814 1613.12 509.869 1288.21 1021.23 1049.76Z" stroke="#831C55" stroke-opacity="0.23" stroke-width="1.78017"/>
<path d="M2445.99 1567.81C2684.44 2079.16 2791.25 2592.92 2771.2 3010.16C2751.16 3427.44 2604.26 3747.92 2335.62 3873.19C2066.97 3998.47 1727.05 3904.99 1394.5 3652.12C1062 3399.28 737.09 2987.23 498.64 2475.87C260.191 1964.52 153.386 1450.76 173.43 1033.52C193.476 616.239 340.368 295.756 609.015 170.484C877.662 45.2118 1217.59 138.688 1550.13 391.556C1882.63 644.396 2207.54 1056.45 2445.99 1567.81Z" stroke="#831C55" stroke-opacity="0.23" stroke-width="1.78017"/>
<path d="M2542.64 1927.82C2591.82 2489.89 2516.46 3009.19 2354.93 3394.41C2193.37 3779.67 1945.73 4030.59 1650.43 4056.42C1355.14 4082.26 1067.69 3878.16 841.688 3526.8C615.712 3175.49 451.329 2677.16 402.154 2115.09C352.979 1553.01 428.331 1033.71 589.869 648.49C751.425 263.229 999.069 12.3142 1294.36 -13.5204C1589.65 -39.3551 1877.11 164.745 2103.11 516.099C2329.08 867.414 2493.47 1365.74 2542.64 1927.82Z" stroke="#831C55" stroke-opacity="0.23" stroke-width="1.78017"/>
<path d="M1568.53 3089.47C1006.46 3138.64 487.158 3063.29 101.94 2901.75C-283.322 2740.2 -534.236 2492.55 -560.071 2197.26C-585.906 1901.97 -381.806 1614.51 -30.4516 1388.51C320.864 1162.54 819.194 998.153 1381.27 948.978C1943.34 899.803 2462.64 975.155 2847.86 1136.69C3233.12 1298.25 3484.04 1545.89 3509.87 1841.19C3535.71 2136.48 3331.61 2423.93 2980.25 2649.93C2628.94 2875.91 2130.61 3040.29 1568.53 3089.47Z" stroke="#831C55" stroke-opacity="0.23" stroke-width="1.78017"/>
<path d="M2163.91 1200.28C2596.13 1562.95 2910.05 1983.44 3068.21 2370.06C3226.4 2756.71 3228.71 3109.25 3038.18 3336.32C2847.64 3563.39 2500.06 3622.33 2091.81 3533.69C1683.6 3445.06 1214.99 3208.93 782.775 2846.25C350.558 2483.58 36.6362 2063.1 -121.53 1676.48C-279.713 1289.82 -282.026 937.287 -91.4909 710.216C99.0438 483.146 446.625 424.206 854.877 512.844C1263.08 601.472 1731.69 837.608 2163.91 1200.28Z" stroke="#831C55" stroke-opacity="0.23" stroke-width="1.78017"/>
<path d="M2296.53 2710.5C1933.85 3142.72 1513.37 3456.64 1126.75 3614.81C740.095 3772.99 387.56 3775.3 160.49 3584.77C-66.5804 3394.23 -125.52 3046.65 -36.8824 2638.4C51.7457 2230.2 287.881 1761.59 650.555 1329.37C1013.23 897.151 1433.71 583.23 1820.33 425.064C2206.99 266.88 2559.52 264.568 2786.59 455.103C3013.66 645.638 3072.6 993.218 2983.96 1401.47C2895.34 1809.68 2659.2 2278.29 2296.53 2710.5Z" stroke="#831C55" stroke-opacity="0.23" stroke-width="1.78017"/>
<path d="M1797.46 999.653C2335.56 1169.32 2786.5 1437.66 3080.58 1734.32C3374.69 2031.01 3511.73 2355.83 3422.6 2638.53C3333.46 2921.23 3034.9 3108.69 2623.8 3183.04C2212.75 3257.37 1689.45 3218.54 1151.34 3048.87C613.235 2879.21 162.296 2610.86 -131.781 2314.2C-425.891 2017.51 -562.937 1692.7 -473.802 1410C-384.667 1127.3 -86.0996 939.83 324.996 865.49C736.047 791.157 1259.35 829.989 1797.46 999.653Z" stroke="#831C55" stroke-opacity="0.23" stroke-width="1.78017"/>
<path d="M2497.92 2344.14C2328.26 2882.25 2059.91 3333.19 1763.26 3627.27C1466.57 3921.38 1141.75 4058.42 859.05 3969.29C576.35 3880.15 388.884 3581.58 314.543 3170.49C240.211 2759.44 279.043 2236.13 448.707 1698.03C618.371 1159.92 886.716 708.984 1183.37 414.906C1480.07 120.796 1804.88 -16.2496 2087.58 72.8854C2370.28 162.02 2557.75 460.588 2632.09 871.684C2706.42 1282.73 2667.59 1806.04 2497.92 2344.14Z" stroke="#831C55" stroke-opacity="0.23" stroke-width="1.78017"/>
<path d="M979.266 1070.46C1479.73 809.93 1988.35 680.817 2406.06 682.642C2823.82 684.467 3150.4 817.24 3287.27 1080.17C3424.15 1343.09 3345.59 1686.77 3107.46 2030.03C2869.37 2373.25 2471.88 2715.82 1971.41 2976.35C1470.94 3236.87 962.33 3365.99 544.617 3364.16C126.857 3362.34 -199.728 3229.56 -336.599 2966.64C-473.47 2703.71 -394.91 2360.03 -156.788 2016.78C81.3073 1673.56 478.797 1330.98 979.266 1070.46Z" stroke="#831C55" stroke-opacity="0.23" stroke-width="1.78017"/>
<path d="M2425.28 1525.87C2685.81 2026.34 2814.92 2534.95 2813.1 2952.66C2811.27 3370.42 2678.5 3697 2415.57 3833.88C2152.65 3970.75 1808.97 3892.19 1465.71 3654.06C1122.5 3415.97 779.923 3018.48 519.396 2518.01C258.868 2017.54 129.756 1508.93 131.581 1091.22C133.406 673.458 266.179 346.874 529.106 210.002C792.033 73.1312 1135.71 151.691 1478.97 389.813C1822.18 627.909 2164.76 1025.4 2425.28 1525.87Z" stroke="#831C55" stroke-opacity="0.23" stroke-width="1.78017"/>
<path d="M2537.53 1881.32C2611.17 2440.71 2558.54 2962.81 2413.96 3354.71C2269.36 3746.65 2032.9 4008.13 1739.02 4046.82C1445.13 4085.51 1149.05 3894.14 907.939 3552.98C666.853 3211.86 480.889 2721.17 407.244 2161.78C333.598 1602.38 386.227 1080.29 530.808 688.39C675.405 296.449 911.87 34.9705 1205.75 -3.72005C1499.64 -42.4106 1795.72 148.957 2036.83 490.119C2277.92 831.242 2463.88 1321.93 2537.53 1881.32Z" stroke="#831C55" stroke-opacity="0.23" stroke-width="1.78017"/>
<path d="M1615.03 3084.36C1055.63 3158 533.538 3105.37 141.64 2960.79C-250.301 2816.2 -511.78 2579.73 -550.47 2285.85C-589.161 1991.97 -397.793 1695.88 -56.6316 1454.77C284.492 1213.69 775.178 1027.72 1334.57 954.076C1893.96 880.43 2416.06 933.059 2807.96 1077.64C3199.9 1222.24 3461.38 1458.7 3500.07 1752.59C3538.76 2046.47 3347.39 2342.55 3006.23 2583.66C2665.11 2824.75 2174.42 3010.71 1615.03 3084.36Z" stroke="#831C55" stroke-opacity="0.23" stroke-width="1.78017"/>
<path d="M2127.44 1171C2575.06 1514.48 2907.03 1920.87 3081.91 2300.22C3256.81 2679.61 3274.49 3031.71 3094.04 3266.87C2913.6 3502.04 2568.92 3576.08 2157.19 3505.34C1745.5 3434.6 1267.04 3219.13 819.413 2875.65C371.788 2532.18 39.8239 2125.79 -135.055 1746.44C-309.954 1367.05 -327.642 1014.95 -147.193 779.784C33.2558 544.618 377.935 470.573 789.665 541.319C1201.35 612.057 1679.81 827.528 2127.44 1171Z" stroke="#831C55" stroke-opacity="0.23" stroke-width="1.78017"/>
<path d="M2325.81 2673.99C1982.33 3121.62 1575.94 3453.58 1196.59 3628.46C817.204 3803.36 465.105 3821.05 229.94 3640.6C-5.22522 3460.15 -79.2702 3115.47 -8.5244 2703.74C62.2136 2292.06 277.684 1813.59 621.159 1365.97C964.634 918.343 1371.03 586.379 1750.37 411.499C2129.76 236.6 2481.86 218.913 2717.03 399.362C2952.19 579.81 3026.24 924.489 2955.49 1336.22C2884.76 1747.9 2669.28 2226.37 2325.81 2673.99Z" stroke="#831C55" stroke-opacity="0.23" stroke-width="1.78017"/>
<path d="M1752.57 986.543C2297.57 1132.57 2759.78 1380.99 3066.52 1664.54C3373.29 1948.12 3524.37 2266.65 3447.65 2552.97C3370.94 2839.29 3080.83 3039.6 2673.37 3131.8C2265.95 3223.99 1741.45 3208.02 1196.46 3061.99C651.463 2915.96 189.248 2667.54 -117.489 2383.99C-424.261 2100.41 -575.345 1781.89 -498.626 1495.57C-421.907 1209.25 -131.801 1008.94 275.662 916.735C683.078 824.543 1207.58 840.512 1752.57 986.543Z" stroke="#831C55" stroke-opacity="0.23" stroke-width="1.78017"/>
<path d="M2511.02 2299.2C2364.99 2844.2 2116.57 3306.41 1833.02 3613.15C1549.44 3919.92 1230.91 4071.01 944.593 3994.29C658.274 3917.57 457.962 3627.46 365.761 3220C273.569 2812.58 289.538 2288.08 435.569 1743.09C581.6 1198.1 830.02 735.881 1113.57 429.143C1397.15 122.372 1715.68 -28.7118 2002 48.0072C2288.31 124.726 2488.63 414.832 2580.83 822.294C2673.02 1229.71 2657.05 1754.21 2511.02 2299.2Z" stroke="#831C55" stroke-opacity="0.23" stroke-width="1.78017"/>
<path d="M938.269 1092.98C1426.9 810.871 1929.39 659.696 2346.79 643.298C2764.23 626.899 3096.29 745.301 3244.5 1002.01C3392.71 1258.71 3329.22 1605.49 3106.3 1958.81C2883.4 2312.08 2501.23 2671.67 2012.6 2953.78C1523.97 3235.89 1021.48 3387.06 604.083 3403.46C186.642 3419.86 -145.424 3301.46 -293.633 3044.75C-441.843 2788.05 -378.349 2441.27 -155.426 2087.95C67.4721 1734.68 449.641 1375.09 938.269 1092.98Z" stroke="#831C55" stroke-opacity="0.23" stroke-width="1.78017"/>
<path d="M2402.76 1484.87C2684.87 1973.5 2836.05 2476 2852.44 2893.39C2868.84 3310.83 2750.44 3642.9 2493.73 3791.11C2237.03 3939.32 1890.25 3875.82 1536.93 3652.9C1183.66 3430 824.073 3047.84 541.963 2559.21C259.854 2070.58 108.678 1568.08 92.2811 1150.69C75.8821 733.247 194.283 401.182 450.99 252.972C707.697 104.762 1054.47 168.257 1407.79 391.18C1761.07 614.078 2120.65 996.246 2402.76 1484.87Z" stroke="#831C55" stroke-opacity="0.23" stroke-width="1.78017"/>
<path d="M2530.42 1835.09C2628.39 2390.73 2598.59 2914.63 2471.24 3312.46C2343.87 3710.34 2119.04 3981.88 1827.12 4033.35C1535.21 4084.83 1231.06 3906.56 975.296 3576.24C719.561 3245.95 512.37 2763.85 414.395 2208.2C316.419 1652.55 346.224 1128.66 473.573 730.824C600.937 332.948 825.77 61.4045 1117.69 9.93175C1409.6 -41.5409 1713.75 136.729 1969.51 467.049C2225.25 797.332 2432.44 1279.44 2530.42 1835.09Z" stroke="#831C55" stroke-opacity="0.23" stroke-width="1.78017"/>
<path d="M1661.26 3077.22C1105.61 3175.2 581.718 3145.4 183.886 3018.05C-213.99 2890.68 -485.533 2665.85 -537.006 2373.93C-588.479 2082.02 -410.209 1777.87 -79.8888 1522.1C250.395 1266.37 732.501 1059.18 1288.15 961.203C1843.8 863.227 2367.69 893.033 2765.52 1020.38C3163.4 1147.75 3434.94 1372.58 3486.42 1664.5C3537.89 1956.41 3359.62 2260.56 3029.3 2516.32C2699.02 2772.06 2216.91 2979.25 1661.26 3077.22Z" stroke="#831C55" stroke-opacity="0.23" stroke-width="1.78017"/>
<path d="M2089.73 1143.35C2551.91 1466.98 2901.29 1858.5 3092.55 2229.86C3283.83 2601.26 3316.86 2952.25 3146.84 3195.06C2976.82 3437.88 2635.7 3526.89 2221.27 3474.17C1806.9 3421.45 1319.49 3227.06 857.308 2903.44C395.127 2579.81 45.7521 2188.29 -145.508 1816.93C-336.789 1445.53 -369.818 1094.54 -199.799 851.724C-29.7794 608.912 311.342 519.902 725.766 572.621C1140.14 625.335 1627.55 819.73 2089.73 1143.35Z" stroke="#831C55" stroke-opacity="0.23" stroke-width="1.78017"/>
<path d="M2353.46 2636.25C2029.83 3098.43 1638.31 3447.8 1266.95 3639.06C895.548 3830.34 544.556 3863.37 301.744 3693.35C58.9313 3523.33 -30.0779 3182.21 22.6411 2767.79C75.3544 2353.41 269.75 1866.01 593.373 1403.82C916.996 941.642 1308.52 592.268 1679.88 401.008C2051.28 209.727 2402.27 176.698 2645.08 346.717C2887.9 516.736 2976.91 857.857 2924.19 1272.28C2871.47 1686.66 2677.08 2174.07 2353.46 2636.25Z" stroke="#831C55" stroke-opacity="0.23" stroke-width="1.78017"/>
<path d="M1707.16 975.409C2258.01 1097.53 2730.62 1325.55 3049.43 1595.45C3368.28 1865.38 3533.12 2177.01 3468.96 2466.41C3404.8 2755.8 3123.71 2968.57 2720.66 3078.46C2317.65 3188.34 1792.95 3195.26 1242.11 3073.14C691.263 2951.02 218.652 2723 -100.162 2453.1C-419.011 2183.17 -583.845 1871.54 -519.688 1582.14C-455.531 1292.75 -174.438 1079.98 228.614 970.089C631.622 860.214 1156.32 853.29 1707.16 975.409Z" stroke="#831C55" stroke-opacity="0.23" stroke-width="1.78017"/>
<path d="M2522.14 2253.74C2400.02 2804.58 2172 3277.19 1902.1 3596.01C1632.17 3914.86 1320.54 4079.69 1031.14 4015.53C741.751 3951.38 528.976 3670.28 419.089 3267.23C309.214 2864.22 302.289 2339.53 424.409 1788.68C546.528 1237.84 774.551 765.226 1044.45 446.413C1314.38 127.563 1626.01 -37.2703 1915.41 26.8866C2204.8 91.0435 2417.57 372.136 2527.46 775.188C2637.34 1178.2 2644.26 1702.89 2522.14 2253.74Z" stroke="#831C55" stroke-opacity="0.23" stroke-width="1.78017"/>
<path d="M898.286 1117.26C1374.14 814.103 1869.57 641.154 2285.85 606.565C2702.18 571.973 3039.09 675.777 3198.36 925.775C3357.62 1175.77 3309.32 1524.99 3102.02 1887.69C2894.74 2250.36 2528.62 2626.27 2052.76 2929.42C1576.9 3232.58 1081.48 3405.53 665.199 3440.12C248.87 3474.71 -88.0436 3370.9 -247.31 3120.91C-406.576 2870.91 -358.268 2521.69 -150.969 2158.99C56.3074 1796.33 422.428 1420.41 898.286 1117.26Z" stroke="#831C55" stroke-opacity="0.23" stroke-width="1.78017"/>
<path d="M2378.48 1444.91C2681.63 1920.77 2854.58 2416.19 2889.17 2832.47C2923.76 3248.8 2819.96 3585.72 2569.96 3744.98C2319.96 3904.25 1970.74 3855.94 1608.04 3648.64C1245.38 3441.37 869.465 3075.24 566.31 2599.39C263.156 2123.53 90.2058 1628.11 55.6177 1211.82C21.0257 795.495 124.83 458.581 374.827 299.315C624.825 140.049 974.042 188.357 1336.75 395.656C1699.41 602.932 2075.32 969.053 2378.48 1444.91Z" stroke="#831C55" stroke-opacity="0.23" stroke-width="1.78017"/>
<path d="M2521.28 1789.23C2643.4 2340.07 2636.48 2864.77 2526.6 3267.78C2416.72 3670.83 2203.94 3951.92 1914.55 4016.08C1625.16 4080.23 1313.52 3915.4 1043.59 3596.55C773.694 3277.74 545.671 2805.13 423.552 2254.28C301.432 1703.44 308.357 1178.74 418.232 775.731C528.119 372.679 740.894 91.5864 1030.29 27.4295C1319.68 -36.7274 1631.32 128.106 1901.24 446.956C2171.14 765.769 2399.17 1238.38 2521.28 1789.23Z" stroke="#831C55" stroke-opacity="0.23" stroke-width="1.78017"/>
<path d="M1707.15 3068.08C1156.3 3190.2 631.608 3183.28 228.6 3073.4C-174.453 2963.51 -455.545 2750.74 -519.702 2461.35C-583.859 2171.95 -419.025 1860.32 -100.176 1590.39C218.638 1320.49 691.248 1092.47 1242.09 970.349C1792.94 848.229 2317.64 855.154 2720.64 965.029C3123.7 1074.92 3404.79 1287.69 3468.95 1577.08C3533.1 1866.48 3368.27 2178.11 3049.42 2448.04C2730.61 2717.94 2258 2945.96 1707.15 3068.08Z" stroke="#831C55" stroke-opacity="0.23" stroke-width="1.78017"/>
<path d="M2050.84 1117.35C2526.7 1420.51 2892.82 1796.42 3100.1 2159.09C3307.4 2521.79 3355.71 2871.01 3196.44 3121C3037.17 3371 2700.26 3474.81 2283.93 3440.21C1867.65 3405.62 1372.23 3232.68 896.367 2929.52C420.509 2626.37 54.3891 2250.45 -152.887 1887.79C-360.186 1525.09 -408.494 1175.87 -249.228 925.871C-89.9619 675.874 246.952 572.07 663.281 606.662C1079.56 641.25 1574.99 814.2 2050.84 1117.35Z" stroke="#831C55" stroke-opacity="0.23" stroke-width="1.78017"/>
<path d="M2379.44 2597.32C2076.29 3073.18 1700.37 3439.3 1337.71 3646.57C975.008 3853.87 625.791 3902.18 375.794 3742.92C125.796 3583.65 21.992 3246.74 56.5839 2830.41C91.1721 2414.12 264.122 1918.7 567.277 1442.84C870.432 966.986 1246.35 600.866 1609.01 393.589C1971.71 186.29 2320.93 137.982 2570.93 297.249C2820.92 456.515 2924.73 793.429 2890.14 1209.76C2855.55 1626.04 2682.6 2121.46 2379.44 2597.32Z" stroke="#831C55" stroke-opacity="0.23" stroke-width="1.78017"/>
<path d="M1661.34 966.256C2216.99 1064.23 2699.1 1271.42 3029.38 1527.16C3359.7 1782.92 3537.97 2087.07 3486.5 2378.99C3435.02 2670.9 3163.48 2895.74 2765.61 3023.1C2367.77 3150.45 1843.88 3180.25 1288.23 3082.28C732.583 2984.3 250.476 2777.11 -79.8073 2521.38C-410.127 2265.61 -588.397 1961.46 -536.925 1669.55C-485.452 1377.63 -213.908 1152.8 183.968 1025.43C581.799 898.086 1105.69 868.281 1661.34 966.256Z" stroke="#831C55" stroke-opacity="0.23" stroke-width="1.78017"/>
<path d="M2531.29 2207.82C2433.31 2763.47 2226.12 3245.58 1970.39 3575.86C1714.62 3906.18 1410.48 4084.45 1118.56 4032.98C826.644 3981.5 601.811 3709.96 474.447 3312.09C347.098 2914.25 317.293 2390.36 415.269 1834.71C513.244 1279.06 720.435 796.956 976.17 466.673C1231.93 136.353 1536.08 -41.917 1828 9.55573C2119.91 61.0284 2344.75 332.572 2472.11 730.448C2599.46 1128.28 2629.27 1652.17 2531.29 2207.82Z" stroke="#831C55" stroke-opacity="0.23" stroke-width="1.78017"/>
<path d="M859.407 1143.26C1321.59 819.634 1809 625.239 2223.37 572.525C2637.8 519.806 2978.92 608.815 3148.94 851.628C3318.96 1094.44 3285.93 1445.43 3094.65 1816.83C2903.39 2188.19 2554.01 2579.72 2091.83 2903.34C1629.65 3226.96 1142.24 3421.36 727.864 3474.07C313.44 3526.79 -27.681 3437.78 -197.7 3194.97C-367.719 2952.16 -334.69 2601.16 -143.409 2229.76C47.8504 1858.41 397.225 1466.88 859.407 1143.26Z" stroke="#831C55" stroke-opacity="0.23" stroke-width="1.78017"/>
<path d="M2352.49 1406.04C2676.11 1868.22 2870.5 2355.62 2923.22 2770C2975.94 3184.43 2886.93 3525.55 2644.11 3695.57C2401.3 3865.59 2050.31 3832.56 1678.91 3641.28C1307.55 3450.02 916.025 3100.64 592.402 2638.46C268.779 2176.28 74.3839 1688.87 21.6707 1274.49C-31.0484 860.069 57.9608 518.948 300.773 348.929C543.586 178.91 894.578 211.939 1265.98 403.22C1637.34 594.479 2028.86 943.854 2352.49 1406.04Z" stroke="#831C55" stroke-opacity="0.23" stroke-width="1.78017"/>
<path d="M2510.16 1743.79C2656.19 2288.78 2672.16 2813.28 2579.96 3220.7C2487.76 3628.16 2287.45 3918.27 2001.13 3994.98C1714.81 4071.7 1396.29 3920.62 1112.71 3613.85C829.157 3307.11 580.736 2844.9 434.706 2299.9C288.675 1754.91 272.706 1230.41 364.897 822.992C457.099 415.53 657.41 125.423 943.73 48.7045C1230.05 -28.0145 1548.58 123.069 1832.16 429.841C2115.71 736.578 2364.13 1198.79 2510.16 1743.79Z" stroke="#831C55" stroke-opacity="0.23" stroke-width="1.78017"/>
<path d="M1752.57 3056.94C1207.58 3202.97 683.079 3218.94 275.662 3126.75C-131.8 3034.54 -421.906 2834.23 -498.625 2547.91C-575.344 2261.59 -424.261 1943.07 -117.489 1659.49C189.249 1375.94 651.463 1127.52 1196.46 981.487C1741.45 835.456 2265.95 819.487 2673.37 911.679C3080.83 1003.88 3370.94 1204.19 3447.65 1490.51C3524.37 1776.83 3373.29 2095.36 3066.52 2378.94C2759.78 2662.49 2297.57 2910.91 1752.57 3056.94Z" stroke="#831C55" stroke-opacity="0.23" stroke-width="1.78017"/>
<path d="M2010.85 1093.08C2499.48 1375.19 2881.65 1734.77 3104.55 2088.05C3327.47 2441.36 3390.96 2788.14 3242.75 3044.85C3094.54 3301.55 2762.48 3419.96 2345.04 3403.56C1927.64 3387.16 1425.15 3235.98 936.519 2953.87C447.891 2671.77 65.722 2312.18 -157.176 1958.9C-380.099 1605.59 -443.593 1258.81 -295.384 1002.1C-147.174 745.396 184.892 626.995 602.333 643.394C1019.73 659.791 1522.22 810.967 2010.85 1093.08Z" stroke="#831C55" stroke-opacity="0.23" stroke-width="1.78017"/>
<path d="M2403.72 2557.32C2121.61 3045.95 1762.02 3428.12 1408.74 3651.02C1055.43 3873.94 708.652 3937.43 451.945 3789.22C195.238 3641.01 76.8371 3308.95 93.2361 2891.51C109.633 2474.11 260.809 1971.62 542.918 1482.99C825.028 994.36 1184.61 612.191 1537.89 389.293C1891.21 166.37 2237.98 102.875 2494.69 251.085C2751.4 399.295 2869.8 731.36 2853.4 1148.8C2837 1566.2 2685.83 2068.69 2403.72 2557.32Z" stroke="#831C55" stroke-opacity="0.23" stroke-width="1.78017"/>
<path d="M1615.12 959.114C2174.51 1032.76 2665.2 1218.72 3006.32 1459.81C3347.48 1700.92 3538.85 1997 3500.16 2290.89C3461.47 2584.77 3199.99 2821.23 2808.05 2965.83C2416.15 3110.41 1894.05 3163.04 1334.66 3089.4C775.27 3015.75 284.584 2829.79 -56.5397 2588.7C-397.702 2347.59 -589.069 2051.51 -550.378 1757.62C-511.688 1463.74 -250.21 1227.28 141.732 1082.68C533.63 938.097 1055.73 885.468 1615.12 959.114Z" stroke="#831C55" stroke-opacity="0.23" stroke-width="1.78017"/>
<path d="M2538.4 2161.55C2464.75 2720.94 2278.79 3211.63 2037.7 3552.75C1796.59 3893.92 1500.51 4085.28 1206.62 4046.59C912.741 4007.9 676.277 3746.42 531.68 3354.48C387.098 2962.58 334.47 2440.49 408.115 1881.1C481.761 1321.7 667.725 831.018 908.81 489.894C1149.92 148.732 1446 -42.6352 1739.89 -3.94474C2033.77 34.7457 2270.24 296.224 2414.83 688.165C2559.41 1080.06 2612.04 1602.16 2538.4 2161.55Z" stroke="#831C55" stroke-opacity="0.23" stroke-width="1.78017"/>
<path d="M821.68 1170.92C1269.31 827.449 1747.77 611.979 2159.45 541.241C2571.18 470.495 2915.86 544.54 3096.31 779.705C3276.76 1014.87 3259.07 1366.97 3084.17 1746.36C2909.29 2125.71 2577.33 2532.1 2129.7 2875.57C1682.08 3219.05 1203.62 3434.52 791.932 3505.26C380.202 3576 35.5228 3501.96 -144.926 3266.79C-325.375 3031.63 -307.687 2679.53 -132.788 2300.14C42.0909 1920.79 374.055 1514.4 821.68 1170.92Z" stroke="#831C55" stroke-opacity="0.23" stroke-width="1.78017"/>
<path d="M2324.8 1368.32C2668.28 1815.95 2883.75 2294.41 2954.49 2706.09C3025.23 3117.82 2951.19 3462.5 2716.02 3642.95C2480.86 3823.4 2128.76 3805.71 1749.37 3630.81C1370.02 3455.93 963.627 3123.97 620.152 2676.35C276.677 2228.72 61.206 1750.26 -9.53195 1338.57C-80.2778 926.842 -6.23285 582.163 228.933 401.715C464.098 221.266 816.196 238.954 1195.59 413.852C1574.93 588.732 1981.33 920.696 2324.8 1368.32Z" stroke="#831C55" stroke-opacity="0.23" stroke-width="1.78017"/>
<path d="M2497.07 1698.88C2666.73 2236.99 2705.56 2760.29 2631.23 3171.34C2556.89 3582.44 2369.43 3881.01 2086.72 3970.14C1804.02 4059.28 1479.21 3922.23 1182.52 3628.12C885.86 3334.04 617.515 2883.11 447.851 2345C278.186 1806.89 239.355 1283.59 313.687 872.541C388.027 461.444 575.494 162.877 858.194 73.742C1140.89 -15.3931 1465.71 121.653 1762.4 415.763C2059.06 709.84 2327.4 1160.78 2497.07 1698.88Z" stroke="#831C55" stroke-opacity="0.23" stroke-width="1.78017"/>
<path d="M1797.48 3043.85C1259.38 3213.51 736.073 3252.35 325.023 3178.01C-86.0732 3103.67 -384.641 2916.21 -473.776 2633.51C-562.911 2350.81 -425.865 2025.99 -131.755 1729.3C162.323 1432.64 613.261 1164.3 1151.37 994.632C1689.47 824.968 2212.78 786.136 2623.83 860.468C3034.92 934.809 3333.49 1122.28 3422.63 1404.98C3511.76 1687.68 3374.71 2012.49 3080.6 2309.18C2786.53 2605.84 2335.59 2874.19 1797.48 3043.85Z" stroke="#831C55" stroke-opacity="0.23" stroke-width="1.78017"/>
<path d="M1969.85 1070.57C2470.32 1331.1 2867.81 1673.67 3105.9 2016.89C3344.02 2360.14 3422.58 2703.82 3285.71 2966.75C3148.84 3229.68 2822.26 3362.45 2404.5 3364.27C1986.78 3366.1 1478.17 3236.99 977.704 2976.46C477.235 2715.93 79.745 2373.36 -158.351 2030.14C-396.473 1686.88 -475.033 1343.21 -338.162 1080.28C-201.29 817.351 125.295 684.578 543.054 682.753C960.767 680.928 1469.38 810.041 1969.85 1070.57Z" stroke="#831C55" stroke-opacity="0.23" stroke-width="1.78017"/>
<path d="M2426.21 2516.28C2165.68 3016.75 1823.11 3414.24 1479.89 3652.33C1136.64 3890.46 792.957 3969.02 530.03 3832.15C267.102 3695.27 134.329 3368.69 132.504 2950.93C130.679 2533.22 259.792 2024.61 520.32 1524.14C780.847 1023.67 1123.42 626.178 1466.64 388.083C1809.89 149.961 2153.57 71.4007 2416.5 208.272C2679.43 345.143 2812.2 671.728 2814.02 1089.49C2815.85 1507.2 2686.74 2015.81 2426.21 2516.28Z" stroke="#831C55" stroke-opacity="0.23" stroke-width="1.78017"/>
<path d="M1568.65 954.005C2130.73 1003.18 2629.06 1167.56 2980.37 1393.54C3331.73 1619.54 3535.83 1906.99 3509.99 2202.29C3484.16 2497.58 3233.24 2745.22 2847.98 2906.78C2462.76 3068.32 1943.46 3143.67 1381.39 3094.49C819.313 3045.32 320.983 2880.93 -30.3326 2654.96C-381.687 2428.96 -585.787 2141.5 -559.952 1846.21C-534.118 1550.92 -283.203 1303.28 102.059 1141.72C487.277 980.182 1006.58 904.83 1568.65 954.005Z" stroke="#831C55" stroke-opacity="0.23" stroke-width="1.78017"/>
<path d="M2543.5 2115.02C2494.32 2677.1 2329.94 3175.43 2103.96 3526.74C1877.96 3878.1 1590.51 4082.2 1295.22 4056.36C999.926 4030.53 752.282 3779.61 590.726 3394.35C429.188 3009.13 353.836 2489.83 403.01 1927.76C452.185 1365.68 616.569 867.354 842.545 516.038C1068.55 164.684 1356 -39.4158 1651.29 -13.5812C1946.58 12.2535 2194.23 263.168 2355.78 648.43C2517.32 1033.65 2592.67 1552.95 2543.5 2115.02Z" stroke="#831C55" stroke-opacity="0.23" stroke-width="1.78017"/>
<path d="M785.21 1200.22C1217.43 837.549 1686.04 601.413 2094.24 512.785C2502.5 424.147 2850.08 483.087 3040.61 710.158C3231.15 937.228 3228.83 1289.76 3070.65 1676.42C2912.48 2063.04 2598.56 2483.52 2166.35 2846.19C1734.13 3208.87 1265.52 3445 857.312 3533.63C449.06 3622.27 101.479 3563.33 -89.0555 3336.26C-279.59 3109.19 -277.278 2756.65 -119.094 2370C39.0716 1983.38 352.993 1562.9 785.21 1200.22Z" stroke="#831C55" stroke-opacity="0.23" stroke-width="1.78017"/>
<path d="M2295.51 1331.87C2658.18 1764.09 2894.32 2232.7 2982.95 2640.9C3071.58 3049.16 3012.64 3396.74 2785.57 3587.27C2558.5 3777.81 2205.97 3775.49 1819.31 3617.31C1432.69 3459.14 1012.21 3145.22 649.535 2713.01C286.862 2280.79 50.7264 1812.18 -37.9016 1403.97C-126.539 995.72 -67.5997 648.139 159.471 457.605C386.541 267.07 739.076 269.382 1125.73 427.566C1512.35 585.732 1932.83 899.653 2295.51 1331.87Z" stroke="#831C55" stroke-opacity="0.23" stroke-width="1.78017"/>
<path d="M2482.02 1654.6C2675 2184.79 2736.62 2705.9 2680.29 3119.8C2623.95 3533.75 2449.68 3840.21 2171.14 3941.59C1892.6 4042.97 1562.11 3920.23 1252.88 3639.34C943.672 3358.48 655.912 2919.68 462.937 2389.48C269.963 1859.29 208.342 1338.18 264.674 924.276C321.012 510.329 495.277 203.869 773.82 102.487C1052.36 1.10565 1382.85 123.853 1692.08 404.741C2001.29 685.599 2289.05 1124.4 2482.02 1654.6Z" stroke="#831C55" stroke-opacity="0.23" stroke-width="1.78017"/>
<path d="M1841.79 3028.78C1311.6 3221.75 790.49 3283.37 376.588 3227.04C-37.3592 3170.7 -343.82 2996.44 -445.201 2717.89C-546.583 2439.35 -423.836 2108.87 -142.947 1799.63C137.911 1490.43 576.715 1202.67 1106.91 1009.69C1637.1 816.717 2158.21 755.096 2572.11 811.428C2986.06 867.766 3292.52 1042.03 3393.9 1320.57C3495.28 1599.12 3372.54 1929.6 3091.65 2238.84C2810.79 2548.04 2371.99 2835.8 1841.79 3028.78Z" stroke="#831C55" stroke-opacity="0.23" stroke-width="1.78017"/>
<path d="M1927.9 1049.88C2439.26 1288.33 2851.32 1613.24 3104.16 1945.74C3357.02 2278.28 3450.5 2618.21 3325.23 2886.86C3199.96 3155.5 2879.47 3302.4 2462.19 3322.44C2044.95 3342.48 1531.2 3235.68 1019.84 2997.23C508.483 2758.78 96.4282 2433.87 -156.412 2101.37C-409.28 1768.82 -502.756 1428.9 -377.484 1160.25C-252.212 891.606 68.271 744.714 485.553 724.668C902.789 704.624 1416.55 811.429 1927.9 1049.88Z" stroke="#831C55" stroke-opacity="0.23" stroke-width="1.78017"/>
<path d="M2446.89 2474.31C2208.44 2985.66 1883.53 3397.72 1551.02 3650.56C1218.48 3903.43 878.557 3996.9 609.91 3871.63C341.263 3746.36 194.371 3425.87 174.325 3008.59C154.281 2591.36 261.086 2077.6 499.536 1566.24C737.985 1054.89 1062.89 642.83 1395.4 389.991C1727.94 137.123 2067.87 43.6462 2336.51 168.918C2605.16 294.191 2752.05 614.673 2772.1 1031.96C2792.14 1449.19 2685.34 1962.95 2446.89 2474.31Z" stroke="#831C55" stroke-opacity="0.23" stroke-width="1.78017"/>
<path d="M2546.57 2068.31C2521.96 2631.99 2379.47 3137.02 2169.04 3497.86C1958.58 3858.74 1680.3 4075.18 1384.16 4062.25C1088.02 4049.32 829.67 3809.45 651.463 3431.6C473.275 3053.79 375.343 2538.27 399.954 1974.59C424.565 1410.91 567.055 905.879 777.492 545.042C987.953 184.164 1266.23 -32.2805 1562.37 -19.3508C1858.5 -6.42121 2116.86 233.453 2295.07 611.3C2473.25 989.106 2571.18 1504.63 2546.57 2068.31Z" stroke="#831C55" stroke-opacity="0.23" stroke-width="1.78017"/>
<path d="M750.023 1231.08C1166.01 849.903 1623.87 593.552 2027.83 487.202C2431.82 380.841 2781.64 424.564 2981.9 643.107C3182.16 861.65 3195.23 1213.95 3054.06 1607.14C2912.91 2000.29 2617.63 2434.07 2201.64 2815.25C1785.65 3196.43 1327.79 3452.78 923.838 3559.13C519.841 3665.49 170.02 3621.77 -30.238 3403.22C-230.496 3184.68 -243.563 2832.38 -102.396 2439.19C38.7555 2046.04 334.037 1612.27 750.023 1231.08Z" stroke="#831C55" stroke-opacity="0.23" stroke-width="1.78017"/>
<path d="M2264.63 1296.71C2645.81 1712.7 2902.17 2170.56 3008.52 2574.51C3114.88 2978.51 3071.15 3328.33 2852.61 3528.59C2634.07 3728.85 2281.77 3741.91 1888.58 3600.75C1495.43 3459.59 1061.65 3164.31 680.472 2748.33C299.291 2332.34 42.9395 1874.48 -63.4098 1470.53C-169.771 1066.53 -126.049 716.708 92.4947 516.45C311.038 316.192 663.338 303.124 1056.53 444.292C1449.67 585.443 1883.45 880.725 2264.63 1296.71Z" stroke="#831C55" stroke-opacity="0.23" stroke-width="1.78017"/>
</g>
<defs>
<clipPath id="clip0_2132_151342">
<rect width="785" height="1056" fill="white" transform="translate(-151)"/>
</clipPath>
</defs>
</svg>
