<svg width="20" height="20" viewBox="0 0 20 20" fill="none" xmlns="http://www.w3.org/2000/svg">
<path d="M7.92383 15.0078V15.4347C7.92383 15.9851 8.14259 16.5129 8.53194 16.9019C8.92128 17.291 9.44929 17.5093 9.99969 17.5089V17.5089C10.5502 17.5091 11.0782 17.2906 11.4675 16.9014C11.8568 16.5122 12.0756 15.9843 12.0756 15.4338V15.0078" stroke="#1E1F21" stroke-width="1.4" stroke-linecap="round" stroke-linejoin="round"/>
<path fill-rule="evenodd" clip-rule="evenodd" d="M14.9584 15.0052C15.9037 15.0052 16.6699 14.2389 16.6699 13.2937V13.2937C16.6696 12.8135 16.4789 12.353 16.1397 12.0131L15.0026 10.8768V7.50208C15.0026 4.73951 12.7631 2.5 10.0005 2.5V2.5C7.23792 2.5 4.99842 4.73951 4.99842 7.50208V10.8768L3.86128 12.0131C3.5221 12.353 3.33144 12.8135 3.33105 13.2937V13.2937C3.33105 13.7476 3.51138 14.1829 3.83235 14.5039C4.15333 14.8249 4.58867 15.0052 5.0426 15.0052H14.9584Z" stroke="#1E1F21" stroke-width="1.4" stroke-linecap="round" stroke-linejoin="round"/>
<path d="M14.9531 8.90152C16.9565 8.90152 18.5911 7.28772 18.5911 5.28409C18.5911 3.28046 16.9565 1.66667 14.9531 1.66667C12.9497 1.66667 11.3151 3.28046 11.3151 5.28409C11.3151 7.28772 12.9497 8.90152 14.9531 8.90152Z" fill="#FC4017" stroke="#F9F9F9" stroke-width="1.66667"/>
</svg>
