<svg width="20" height="20" viewBox="0 0 20 20" fill="none" xmlns="http://www.w3.org/2000/svg">
<path fill-rule="evenodd" clip-rule="evenodd" d="M14.1686 17.4997H5.83179C3.99008 17.4997 2.49707 16.0066 2.49707 14.1649V7.49549C2.49707 6.57463 3.24357 5.82812 4.16443 5.82812H15.836C16.7568 5.82812 17.5033 6.57463 17.5033 7.49549V14.1649C17.5033 16.0066 16.0103 17.4997 14.1686 17.4997Z" stroke="#1E1F21" stroke-width="1.4" stroke-linecap="round" stroke-linejoin="round"/>
<path d="M6.66602 5.82691V4.15955C6.66602 3.23869 7.41252 2.49219 8.33338 2.49219H11.6681C12.589 2.49219 13.3355 3.23869 13.3355 4.15955V5.82691" stroke="#1E1F21" stroke-width="1.4" stroke-linecap="round" stroke-linejoin="round"/>
<rect x="8.33301" y="9.16406" width="3.33472" height="2.50104" rx="0.5" stroke="#1E1F21" stroke-width="1.4" stroke-linecap="round" stroke-linejoin="round"/>
<path d="M11.668 10.4101H14.5859C16.1974 10.4101 17.5037 9.10369 17.5037 7.49219V7.49219" stroke="#1E1F21" stroke-width="1.4" stroke-linecap="round" stroke-linejoin="round"/>
<path d="M8.33283 10.4101H5.41495C3.80345 10.4101 2.49707 9.10369 2.49707 7.49219V7.49219" stroke="#1E1F21" stroke-width="1.4" stroke-linecap="round" stroke-linejoin="round"/>
</svg>
