<svg width="227" height="20" viewBox="0 0 227 20" fill="none" xmlns="http://www.w3.org/2000/svg">
<g clip-path="url(#clip0_2132_151420)">
<path d="M209.307 9.87895C207.796 9.08782 206.56 7.91754 197.61 6.42424C194.548 5.92738 191.493 5.38947 188.429 4.91314C165.556 1.89369 163.566 2.00592 146.691 0.730251C137.652 0.190964 128.589 0.15127 119.538 0.000708312C113.155 -0.0143479 106.771 0.214233 100.39 0.342895C66.0278 1.85536 77.9851 1.05191 54.043 3.16936C43.7268 4.56137 33.4352 6.16144 23.1271 7.62326C21.59 7.95313 20.0296 8.19403 18.5131 8.6115C16.835 9.07961 16.772 9.06044 16.5325 9.27944C15.4389 10.0706 16.1246 12.0361 17.726 11.6748C22.3784 10.3785 22.1444 10.5017 42.098 7.61505C42.681 8.22825 43.0958 8.07769 44.6192 8.04073C46.4246 7.99693 48.2299 7.96818 50.034 7.88743C57.3581 7.36594 64.6631 6.57069 71.9832 5.97803C74.503 5.80009 77.0202 5.55098 79.54 5.33472C82.7169 5.17594 85.8951 5.02127 89.0734 4.86934C105.537 4.57369 100.771 4.44092 121.191 4.66129C124.397 4.7968 121.406 4.63665 138.399 5.60573C151.622 6.82118 165.9 9.43001 178.834 11.9184C184.428 13.0011 194.804 15.0939 200.229 16.9526C200.751 17.0964 201.363 16.9157 201.668 16.4626C202.102 15.9535 202.032 15.1349 201.561 14.6655C201.116 14.2384 200.447 14.1946 199.894 13.9701C197.445 13.1694 193.845 12.3153 191.179 11.7035L194.76 12.1524C197.911 12.5809 201.094 12.689 204.251 13.0763C205.729 13.2077 207.731 13.3241 208.951 12.4755C209.26 12.2647 209.616 12.0991 209.801 11.7541C210.179 11.1259 209.956 10.2403 209.31 9.88169L209.307 9.87895ZM142.664 3.25422C147.816 3.44584 163.741 4.73931 169.579 5.29913C175.868 6.05331 182.156 6.80886 188.435 7.652C191.754 8.3049 198.581 9.18637 202.358 10.1349C200.733 9.97751 199.104 9.86527 197.478 9.71607C179.211 7.53977 160.96 5.19647 142.664 3.25422Z" fill="url(#paint0_linear_2132_151420)"/>
</g>
<defs>
<linearGradient id="paint0_linear_2132_151420" x1="21.3542" y1="8.03258" x2="216.112" y2="17.4023" gradientUnits="userSpaceOnUse">
<stop stop-color="#FA7867"/>
<stop offset="1" stop-color="#7B0F4D"/>
</linearGradient>
<clipPath id="clip0_2132_151420">
<rect width="226.88" height="20" fill="white" transform="translate(0.00195312)"/>
</clipPath>
</defs>
</svg>
